<svg width="16" height="10" viewBox="0 0 16 10" fill="none" xmlns="http://www.w3.org/2000/svg">
<path fill-rule="evenodd" clip-rule="evenodd" d="M9.23115 0.232025C9.35222 0.147861 9.49202 0.0844069 9.64254 0.0452879C9.79306 0.00616892 9.95135 -0.00784723 10.1084 0.00404007C10.2654 0.0159274 10.4181 0.0534852 10.5577 0.114567C10.6973 0.175649 10.8211 0.259058 10.9219 0.360025L14.9215 4.36002C15.0269 4.46038 15.1071 4.57729 15.1575 4.70386C15.2078 4.83043 15.2272 4.96411 15.2147 5.09704C15.2021 5.22997 15.1578 5.35946 15.0842 5.4779C15.0107 5.59633 14.9095 5.70132 14.7866 5.78668C14.6637 5.87205 14.5215 5.93606 14.3685 5.97496C14.2154 6.01386 14.0546 6.02686 13.8954 6.0132C13.7362 5.99953 13.582 5.95948 13.4416 5.89539C13.3013 5.83131 13.1778 5.74448 13.0783 5.64003L9.07755 1.64003C8.87395 1.43631 8.77576 1.17355 8.80456 0.909526C8.83336 0.645498 8.9868 0.401807 9.23115 0.232025Z" fill="white"/>
<path fill-rule="evenodd" clip-rule="evenodd" d="M9.23115 9.768C8.9868 9.59822 8.83336 9.35453 8.80456 9.0905C8.77576 8.82648 8.87395 8.56372 9.07755 8.36L13.0783 4.36C13.1778 4.25555 13.3013 4.16872 13.4416 4.10464C13.582 4.04055 13.7362 4.0005 13.8954 3.98683C14.0546 3.97317 14.2154 3.98617 14.3685 4.02507C14.5215 4.06397 14.6637 4.12798 14.7866 4.21335C14.9095 4.29871 15.0107 4.4037 15.0842 4.52213C15.1578 4.64057 15.2021 4.77006 15.2147 4.90299C15.2272 5.03592 15.2078 5.1696 15.1575 5.29617C15.1071 5.42274 15.0269 5.53965 14.9215 5.64001L10.9219 9.64001C10.8211 9.74097 10.6973 9.82438 10.5577 9.88546C10.4181 9.94654 10.2654 9.9841 10.1084 9.99599C9.95135 10.0079 9.79306 9.99386 9.64254 9.95474C9.49202 9.91562 9.35222 9.85217 9.23115 9.768Z" fill="white"/>
<path fill-rule="evenodd" clip-rule="evenodd" d="M12.7999 5C12.7999 5.26522 12.6735 5.51957 12.4485 5.70711C12.2234 5.89464 11.9182 6 11.5999 6L1.99993 6C1.68167 6 1.37644 5.89464 1.1514 5.70711C0.926354 5.51957 0.799927 5.26522 0.799927 5C0.799927 4.73478 0.926354 4.48043 1.1514 4.29289C1.37644 4.10536 1.68167 4 1.99993 4L11.5999 4C11.9182 4 12.2234 4.10536 12.4485 4.29289C12.6735 4.48043 12.7999 4.73478 12.7999 5Z" fill="white"/>
</svg>
