<svg width="24" height="20" viewBox="0 0 24 20" fill="none" xmlns="http://www.w3.org/2000/svg">
<path fill-rule="evenodd" clip-rule="evenodd" d="M13.2311 5.23202C13.3522 5.14786 13.492 5.08441 13.6425 5.04529C13.7931 5.00617 13.9514 4.99215 14.1084 5.00404C14.2654 5.01593 14.4181 5.05349 14.5577 5.11457C14.6973 5.17565 14.8211 5.25906 14.9219 5.36003L18.9215 9.36002C19.0269 9.46038 19.1071 9.57729 19.1575 9.70386C19.2078 9.83043 19.2272 9.96411 19.2147 10.097C19.2021 10.23 19.1578 10.3595 19.0842 10.4779C19.0107 10.5963 18.9095 10.7013 18.7866 10.7867C18.6637 10.872 18.5215 10.9361 18.3685 10.975C18.2154 11.0139 18.0546 11.0269 17.8954 11.0132C17.7362 10.9995 17.582 10.9595 17.4416 10.8954C17.3013 10.8313 17.1778 10.7445 17.0783 10.64L13.0775 6.64003C12.8739 6.43631 12.7758 6.17355 12.8046 5.90953C12.8334 5.6455 12.9868 5.40181 13.2311 5.23202Z" fill="white"/>
<path fill-rule="evenodd" clip-rule="evenodd" d="M13.2311 14.768C12.9868 14.5982 12.8334 14.3545 12.8046 14.0905C12.7758 13.8265 12.8739 13.5637 13.0775 13.36L17.0783 9.36C17.1778 9.25555 17.3013 9.16872 17.4416 9.10464C17.582 9.04055 17.7362 9.0005 17.8954 8.98683C18.0546 8.97317 18.2154 8.98617 18.3685 9.02507C18.5215 9.06397 18.6637 9.12798 18.7866 9.21335C18.9095 9.29871 19.0107 9.4037 19.0842 9.52213C19.1578 9.64057 19.2021 9.77006 19.2147 9.90299C19.2272 10.0359 19.2078 10.1696 19.1575 10.2962C19.1071 10.4227 19.0269 10.5396 18.9215 10.64L14.9219 14.64C14.8211 14.741 14.6973 14.8244 14.5577 14.8855C14.4181 14.9465 14.2654 14.9841 14.1084 14.996C13.9514 15.0079 13.7931 14.9939 13.6425 14.9547C13.492 14.9156 13.3522 14.8522 13.2311 14.768Z" fill="white"/>
<path fill-rule="evenodd" clip-rule="evenodd" d="M16.7999 10C16.7999 10.2652 16.6735 10.5196 16.4485 10.7071C16.2234 10.8946 15.9182 11 15.5999 11L5.99993 11C5.68167 11 5.37644 10.8946 5.1514 10.7071C4.92635 10.5196 4.79993 10.2652 4.79993 10C4.79993 9.73478 4.92635 9.48043 5.1514 9.29289C5.37644 9.10536 5.68167 9 5.99993 9L15.5999 9C15.9182 9 16.2234 9.10536 16.4485 9.29289C16.6735 9.48043 16.7999 9.73478 16.7999 10Z" fill="white"/>
</svg>
