<svg width="15" height="16" viewBox="0 0 15 16" fill="none" xmlns="http://www.w3.org/2000/svg">
<path d="M1.25 8C1.25 11.4519 4.04813 14.25 7.5 14.25C10.9519 14.25 13.75 11.4519 13.75 8C13.75 4.54813 10.9519 1.75 7.5 1.75C4.04813 1.75 1.25 4.54813 1.25 8Z" stroke="#792ECC" stroke-linecap="round" stroke-linejoin="round"/>
<path d="M8.12505 1.78125C8.12505 1.78125 10 4.25 10 8C10 11.75 8.12505 14.2188 8.12505 14.2188M6.87505 14.2188C6.87505 14.2188 5.00005 11.75 5.00005 8C5.00005 4.25 6.87505 1.78125 6.87505 1.78125M1.6438 10.1875C6.22166 11.5778 8.77728 11.5314 13.3563 10.1875M1.6438 5.8125C6.35964 4.51115 8.91811 4.56605 13.3563 5.8125" stroke="#792ECC" stroke-linecap="round" stroke-linejoin="round"/>
</svg>
