<svg width="40" height="40" viewBox="0 0 40 40" fill="none" xmlns="http://www.w3.org/2000/svg">
<path d="M20 33.405C19.7834 33.4066 19.5686 33.365 19.3683 33.2826C19.168 33.2002 18.9861 33.0786 18.8334 32.925L7.71669 21.8C6.71757 20.7984 5.97147 19.5731 5.54019 18.2257C5.10892 16.8783 5.00488 15.4476 5.23669 14.052C5.46851 12.6563 6.02951 11.336 6.87322 10.2004C7.71693 9.06478 8.81908 8.14652 10.0884 7.52169C11.6892 6.7209 13.4966 6.42871 15.2682 6.68431C17.0398 6.93991 18.6908 7.73106 20 8.95169C21.3099 7.73232 22.9609 6.94201 24.7322 6.68646C26.5035 6.43091 28.3105 6.72231 29.9117 7.52169C31.181 8.14652 32.2831 9.06478 33.1268 10.2004C33.9705 11.336 34.5315 12.6563 34.7634 14.052C34.9952 15.4476 34.8911 16.8783 34.4599 18.2257C34.0286 19.5731 33.2825 20.7984 32.2834 21.8L21.1567 32.925C21.0051 33.0774 20.8249 33.1983 20.6263 33.2807C20.4278 33.363 20.215 33.4053 20 33.405ZM13.925 8.27169C12.8571 8.26576 11.8033 8.51549 10.8517 9.00002C9.80564 9.51888 8.8986 10.28 8.20605 11.2201C7.5135 12.1603 7.05546 13.2522 6.87003 14.405C6.69641 15.5274 6.78923 16.675 7.141 17.7549C7.49278 18.8348 8.09363 19.8169 8.89503 20.6217L20.02 31.7467L31.105 20.6217C31.9064 19.8169 32.5073 18.8348 32.859 17.7549C33.2108 16.675 33.3036 15.5274 33.13 14.405C32.9446 13.2522 32.4865 12.1603 31.794 11.2201C31.1014 10.28 30.1944 9.51888 29.1484 9.00002C27.7922 8.34481 26.2654 8.12946 24.781 8.38404C23.2965 8.63861 21.9287 9.3504 20.8684 10.42C20.6365 10.6474 20.3248 10.7748 20 10.7748C19.6753 10.7748 19.3635 10.6474 19.1317 10.42C17.7437 9.05076 15.8747 8.27957 13.925 8.27169Z" fill="#3D2E87"/>
</svg>
